# xmcd CD database file
#
# Track frame offsets:
#	150
#	10524
#	23856
#	35033
#	50473
#	65083
#	80998
#	95002
#	110456
#	121326
#	136433
#	147240
#
# Disc length: 2163 seconds
#
# Revision: 0
# Processed by: cddbd v1.5.2PL0 Copyright (c) Steve Scherf et al.
# Submitted via: CDex 1.79
#
DISCID=ab08710c
DTITLE=Mandy Barnett - I Can`t Stop Loving You: The Songs Of Don Gibson
DYEAR=2013
DGENRE=Country
TTITLE0=(Yes) I'm Hurting
TTITLE1=Too Soon to Know
TTITLE2=Look Who's Blue
TTITLE3=Sweet Dreams
TTITLE4=Just One Time
TTITLE5=Blue Blue Day
TTITLE6=Oh Lonesome Me
TTITLE7=Oh Such A Stranger
TTITLE8=Far Far Away
TTITLE9=I Can't Stop Loving You
TTITLE10=Lonesome Number One
TTITLE11=Legend In My Time
EXTD=YEAR: 2013
EXTT0=
EXTT1=
EXTT2=
EXTT3=
EXTT4=
EXTT5=
EXTT6=
EXTT7=
EXTT8=
EXTT9=
EXTT10=
EXTT11=
PLAYORDER=
